<?xml version="1.0" encoding="utf-8"?>
<!-- Generator: Adobe Illustrator 28.0.0, SVG Export Plug-In . SVG Version: 6.00 Build 0)  -->
<svg version="1.1" id="Layer_1" xmlns="http://www.w3.org/2000/svg" xmlns:xlink="http://www.w3.org/1999/xlink" x="0px" y="0px"
	 viewBox="0 0 232 31" style="enable-background:new 0 0 232 31;" xml:space="preserve">
<style type="text/css">
	.st0{fill:#FFFFFF;}
	.st1{fill:#BB251F;}
</style>
<g>
	<path class="st0" d="M100.6,11.9c0-0.8-0.2-1.2-0.8-1.6c-0.7-0.5-1.8-1-2.8-1.4c-0.9-0.3-1.8-0.4-4.2-0.5c-2-0.1-4.8-0.1-7.9-0.1
		c-4.9,0-9.8,0-12,0c-0.1,0-0.1,0.1-0.1,0.1v5.2v5.2c0,0.1,0,0.1,0.1,0.1c2.2,0,7.1,0.1,12,0c3,0,5.9,0,7.9-0.1
		c2.3-0.1,3.3-0.2,4.2-0.5c1-0.4,2.1-0.9,2.8-1.4c0.6-0.4,0.8-0.8,0.8-1.6c0-0.5,0-1.3,0-1.8C100.7,13.1,100.7,12.4,100.6,11.9z
		 M94,14.8c0,0.7-0.1,0.8-0.6,1.1c-0.2,0.1-0.5,0.3-0.8,0.4c-0.6,0.2-1,0.3-2,0.3c-1.5,0-3.3,0.1-5.4,0.1c-2.1,0-4.3,0-5.8,0
		c-0.1,0-0.1-0.1-0.1-0.1v-2.8v-2.8c0-0.1,0.1-0.1,0.1-0.1c1.5,0,3.6,0,5.8,0c2.1,0,3.9,0,5.4,0.1c1,0,1.4,0.1,2,0.3
		c0.3,0.1,0.5,0.2,0.8,0.4c0.5,0.3,0.6,0.4,0.6,1.1c0,0.3,0,0.8,0,1.1C94,14,94,14.5,94,14.8z M29.5,11.7c0-0.8-0.2-1.2-0.9-1.6
		c-0.8-0.5-1.9-1-3-1.4c-1-0.4-1.9-0.4-4.4-0.5c-2-0.1-5-0.1-8.2-0.1C8,8,2.9,8,0.6,8C0.6,8,0.5,8.1,0.5,8.1v5.4V19
		c0,0.1,0.1,0.1,0.1,0.1c2.3,0,7.4,0.1,12.5,0c3.2,0,6.1,0,8.2-0.1c2.4-0.1,3.4-0.2,4.4-0.5c1.1-0.4,2.2-0.9,3-1.4
		c0.6-0.4,0.8-0.8,0.9-1.6c0-0.5,0-1.3,0-1.9C29.6,13,29.6,12.2,29.5,11.7z M22.7,14.7c0,0.7-0.1,0.8-0.6,1.1
		c-0.2,0.1-0.5,0.3-0.8,0.4c-0.6,0.2-1,0.3-2,0.3c-1.6,0-3.5,0.1-5.6,0.1c-2.2,0-4.5,0-6,0c-0.1,0-0.1-0.1-0.1-0.1v-2.9v-2.9
		c0-0.1,0.1-0.1,0.1-0.1c1.5,0,3.8,0,6,0c2.1,0,4,0,5.6,0.1c1,0,1.5,0.1,2,0.3c0.3,0.1,0.6,0.2,0.8,0.4c0.5,0.3,0.6,0.4,0.6,1.1
		c0,0.3,0,0.8,0,1.1C22.7,13.9,22.7,14.4,22.7,14.7z M65.5,11.7c0-0.8-0.2-1.2-0.9-1.6c-0.7-0.5-1.9-1-2.9-1.4
		c-1-0.3-1.9-0.4-4.3-0.5c-2-0.1-3.1-0.1-6.3-0.1c-3.1,0-4.2,0-6.3,0.1c-2.4,0.1-3.4,0.2-4.3,0.5c-1,0.4-2.2,0.9-2.9,1.4
		c-0.6,0.4-0.8,0.8-0.9,1.6c0,0.5,0,1.3,0,1.9c0,0.6,0,1.4,0,1.9c0,0.8,0.2,1.2,0.9,1.6c0.7,0.5,1.9,1,2.9,1.4
		c1,0.3,1.9,0.4,4.3,0.5c2,0.1,3.1,0.1,6.3,0.1c3.1,0,4.2,0,6.3-0.1c2.4-0.1,3.4-0.2,4.3-0.5c1-0.4,2.2-0.9,2.9-1.4
		c0.6-0.4,0.8-0.8,0.9-1.6c0-0.5,0-1.3,0-1.9C65.5,13,65.5,12.2,65.5,11.7z M58.7,14.7c0,0.7-0.1,0.8-0.6,1.1
		c-0.2,0.1-0.5,0.3-0.8,0.4c-0.6,0.2-1,0.3-2,0.3c-1.5,0-2,0.1-4.1,0.1c-2.1,0-2.5,0-4.1-0.1c-1,0-1.5-0.1-2-0.3
		c-0.3-0.1-0.6-0.2-0.8-0.4c-0.5-0.3-0.6-0.4-0.6-1.1c0-0.3,0-0.8,0-1.1c0-0.3,0-0.8,0-1.1c0-0.7,0.1-0.8,0.6-1.1
		c0.2-0.1,0.5-0.3,0.8-0.4c0.6-0.2,1-0.3,2-0.3c1.5,0,2-0.1,4.1-0.1c2.1,0,2.5,0,4.1,0.1c1,0,1.5,0.1,2,0.3c0.3,0.1,0.6,0.2,0.8,0.4
		c0.5,0.3,0.6,0.4,0.6,1.1c0,0.3,0,0.8,0,1.1C58.7,14,58.7,14.4,58.7,14.7z M169.9,16.6v2.2c0,0.1-0.1,0.1-0.1,0.1h-26.4
		c-0.4,0-0.5-0.1-0.5-0.6V8.8c0-0.3,0.1-0.3,0.5-0.3h26.1c0.1,0,0.1,0.1,0.1,0.1v2c0,0.1-0.1,0.1-0.1,0.1l-19.4,0.1
		c-0.4,0-0.5,0.1-0.5,0.5v1.1c0,0.1,0.1,0.1,0.1,0.1l15.9,0.1c0.1,0,0.1,0.1,0.1,0.1v2c0,0.1-0.1,0.1-0.1,0.1l-15.9,0.1
		c-0.1,0-0.1,0.1-0.1,0.1V16c0,0.4,0.1,0.5,0.5,0.5l19.7,0.1C169.9,16.5,169.9,16.6,169.9,16.6z M135.8,13.6v0.2v5
		c0,0.1,0,0.1-0.1,0.1c-2.2,0-7.1,0.1-12,0c-3,0-5.9,0-7.9-0.1c-2.3-0.1-3.3-0.2-4.2-0.5c-1-0.4-2.1-0.9-2.8-1.4
		c-0.6-0.4-0.8-0.8-0.8-1.6c0-0.5,0-1.3,0-1.8c0-0.6,0-1.3,0-1.8c0-0.8,0.2-1.2,0.8-1.6c0.7-0.5,1.8-1,2.8-1.4
		c0.9-0.3,1.8-0.4,4.2-0.5c2-0.1,4.8-0.1,7.9-0.1c4.9,0,9.7,0,11.9,0c0.1,0,0.1,0.1,0.1,0.1v2.2c0,0.1,0,0.1-0.1,0.1
		c-3.8,0-10.7,0-12.3,0c-2.1,0-3.9,0-5.4,0.1c-1,0-1.4,0.1-2,0.3c-0.3,0.1-0.5,0.2-0.8,0.4c-0.5,0.3-0.6,0.4-0.6,1.1
		c0,0.3,0,0.8,0,1.1c0,0.3,0,0.8,0,1.1c0,0.7,0.1,0.8,0.6,1.1c0.2,0.1,0.5,0.3,0.8,0.4c0.6,0.2,1,0.3,2,0.3c1.5,0,3.3,0.1,5.4,0.1
		c2.1,0,3.9,0,5.4,0c0.2,0,0.2-0.1,0.2-0.2v-0.2c0-0.1-0.1-0.2-0.2-0.3l-3.3-2.1c-0.1,0-0.1-0.2,0-0.2l0.3-0.2
		c0.3-0.2,0.5-0.2,0.8-0.2c1.8,0,8.1,0,8.8,0C135.7,13.2,135.8,13.2,135.8,13.6z"/>
	<g>
		<g>
			<path class="st1" d="M188,30.5h-13.9l26.4-30.2h13.9L188,30.5z"/>
		</g>
		<g>
			<path class="st1" d="M205.5,30.5h-13.9L218,0.3h13.9L205.5,30.5z"/>
		</g>
	</g>
</g>
</svg>
